<mxfile host="app.diagrams.net" modified="2023-04-03T17:58:11.367Z" agent="Mozilla/5.0 (Windows NT 10.0; Win64; x64) AppleWebKit/537.36 (KHTML, like Gecko) Chrome/111.0.0.0 Safari/537.36 Edg/111.0.1661.62" etag="hc-zMr-JRMO5POexx9g-" version="21.1.4" type="device">
  <diagram name="Page-1" id="t6IPkEwGfNj7ju7UmRx4">
    <mxGraphModel dx="1628" dy="1972" grid="1" gridSize="10" guides="1" tooltips="1" connect="1" arrows="1" fold="1" page="1" pageScale="1" pageWidth="850" pageHeight="1100" math="0" shadow="0">
      <root>
        <mxCell id="0" />
        <mxCell id="1" parent="0" />
        <mxCell id="LdjF6QLiRWB7mgE2KeXW-48" value="" style="rounded=0;whiteSpace=wrap;html=1;" parent="1" vertex="1">
          <mxGeometry x="110" y="110" width="1490" height="1040" as="geometry" />
        </mxCell>
        <mxCell id="Y1P2OGkWo0qMnBjNgQvx-2" value="" style="ellipse;html=1;shape=startState;fillColor=#000000;strokeColor=#ff0000;" parent="1" vertex="1">
          <mxGeometry x="430" y="270" width="30" height="30" as="geometry" />
        </mxCell>
        <mxCell id="Y1P2OGkWo0qMnBjNgQvx-3" value="" style="edgeStyle=orthogonalEdgeStyle;html=1;verticalAlign=bottom;endArrow=classic;endSize=8;strokeColor=#ff0000;rounded=0;entryX=0;entryY=0.5;entryDx=0;entryDy=0;exitX=0.5;exitY=1;exitDx=0;exitDy=0;" parent="1" source="Y1P2OGkWo0qMnBjNgQvx-2" edge="1">
          <mxGeometry relative="1" as="geometry">
            <mxPoint x="445" y="360" as="targetPoint" />
          </mxGeometry>
        </mxCell>
        <mxCell id="Y1P2OGkWo0qMnBjNgQvx-5" value="" style="endArrow=none;html=1;rounded=0;entryX=0.58;entryY=0;entryDx=0;entryDy=0;entryPerimeter=0;exitX=0.581;exitY=1.003;exitDx=0;exitDy=0;exitPerimeter=0;" parent="1" source="LdjF6QLiRWB7mgE2KeXW-48" target="LdjF6QLiRWB7mgE2KeXW-48" edge="1">
          <mxGeometry width="50" height="50" relative="1" as="geometry">
            <mxPoint x="984" y="868" as="sourcePoint" />
            <mxPoint x="870" y="100" as="targetPoint" />
          </mxGeometry>
        </mxCell>
        <mxCell id="Y1P2OGkWo0qMnBjNgQvx-8" value="&lt;b&gt;&lt;font style=&quot;font-size: 30px;&quot;&gt;User&lt;/font&gt;&lt;/b&gt;" style="text;html=1;align=center;verticalAlign=middle;resizable=0;points=[];autosize=1;strokeColor=none;fillColor=none;fontSize=25;" parent="1" vertex="1">
          <mxGeometry x="452.5" y="145" width="90" height="50" as="geometry" />
        </mxCell>
        <mxCell id="Y1P2OGkWo0qMnBjNgQvx-9" value="&lt;b&gt;&lt;font style=&quot;font-size: 30px;&quot;&gt;System&lt;/font&gt;&lt;/b&gt;" style="text;html=1;align=center;verticalAlign=middle;resizable=0;points=[];autosize=1;strokeColor=none;fillColor=none;fontSize=25;" parent="1" vertex="1">
          <mxGeometry x="1230" y="145" width="130" height="50" as="geometry" />
        </mxCell>
        <mxCell id="Y1P2OGkWo0qMnBjNgQvx-16" value="Provide Necessary&lt;br&gt;Details" style="rounded=1;whiteSpace=wrap;html=1;arcSize=40;" parent="1" vertex="1">
          <mxGeometry x="491" y="797" width="120" height="40" as="geometry" />
        </mxCell>
        <mxCell id="Y1P2OGkWo0qMnBjNgQvx-25" value="Update Customer&lt;br&gt;Database" style="rounded=1;whiteSpace=wrap;html=1;arcSize=40;" parent="1" vertex="1">
          <mxGeometry x="1139" y="910" width="120" height="40" as="geometry" />
        </mxCell>
        <mxCell id="Y1P2OGkWo0qMnBjNgQvx-26" value="" style="edgeStyle=orthogonalEdgeStyle;html=1;verticalAlign=bottom;endArrow=classic;endSize=8;strokeColor=#ff0000;rounded=0;entryX=0.5;entryY=0;entryDx=0;entryDy=0;exitX=0.5;exitY=1;exitDx=0;exitDy=0;" parent="1" source="LdjF6QLiRWB7mgE2KeXW-17" target="Y1P2OGkWo0qMnBjNgQvx-27" edge="1">
          <mxGeometry relative="1" as="geometry">
            <mxPoint x="460" y="675" as="targetPoint" />
            <mxPoint x="430" y="625" as="sourcePoint" />
          </mxGeometry>
        </mxCell>
        <mxCell id="Y1P2OGkWo0qMnBjNgQvx-27" value="" style="ellipse;html=1;shape=endState;fillColor=#000000;strokeColor=#ff0000;" parent="1" vertex="1">
          <mxGeometry x="345" y="860" width="30" height="30" as="geometry" />
        </mxCell>
        <mxCell id="LdjF6QLiRWB7mgE2KeXW-1" value="Choose Login/Register Method" style="rounded=1;whiteSpace=wrap;html=1;arcSize=40;" parent="1" vertex="1">
          <mxGeometry x="380" y="360" width="130" height="40" as="geometry" />
        </mxCell>
        <mxCell id="LdjF6QLiRWB7mgE2KeXW-16" value="" style="edgeStyle=orthogonalEdgeStyle;html=1;verticalAlign=bottom;endArrow=classic;endSize=8;strokeColor=#ff0000;rounded=0;entryX=0.5;entryY=0;entryDx=0;entryDy=0;exitX=0.499;exitY=0.656;exitDx=0;exitDy=0;exitPerimeter=0;" parent="1" source="_GsAvYN7NbOw1a1kJXOR-19" target="Y1P2OGkWo0qMnBjNgQvx-16" edge="1">
          <mxGeometry relative="1" as="geometry">
            <mxPoint x="680" y="910" as="targetPoint" />
            <mxPoint x="520" y="779.9999999999999" as="sourcePoint" />
          </mxGeometry>
        </mxCell>
        <mxCell id="LdjF6QLiRWB7mgE2KeXW-17" value="Home Page" style="rounded=1;whiteSpace=wrap;html=1;arcSize=40;" parent="1" vertex="1">
          <mxGeometry x="300" y="770" width="120" height="40" as="geometry" />
        </mxCell>
        <mxCell id="LdjF6QLiRWB7mgE2KeXW-19" value="" style="edgeStyle=orthogonalEdgeStyle;html=1;verticalAlign=bottom;endArrow=classic;endSize=8;strokeColor=#ff0000;rounded=0;entryX=0.5;entryY=0;entryDx=0;entryDy=0;" parent="1" target="LdjF6QLiRWB7mgE2KeXW-17" edge="1">
          <mxGeometry relative="1" as="geometry">
            <mxPoint x="410" y="540" as="targetPoint" />
            <mxPoint x="360" y="720" as="sourcePoint" />
          </mxGeometry>
        </mxCell>
        <mxCell id="LdjF6QLiRWB7mgE2KeXW-35" value="" style="group" parent="1" vertex="1" connectable="0">
          <mxGeometry x="640" y="870" width="180" height="200" as="geometry" />
        </mxCell>
        <mxCell id="LdjF6QLiRWB7mgE2KeXW-29" value="" style="rounded=1;whiteSpace=wrap;html=1;" parent="LdjF6QLiRWB7mgE2KeXW-35" vertex="1">
          <mxGeometry width="180" height="200" as="geometry" />
        </mxCell>
        <mxCell id="LdjF6QLiRWB7mgE2KeXW-30" value="" style="endArrow=none;html=1;exitX=1;exitY=0.25;exitDx=0;exitDy=0;entryX=0;entryY=0.25;entryDx=0;entryDy=0;" parent="LdjF6QLiRWB7mgE2KeXW-35" source="LdjF6QLiRWB7mgE2KeXW-29" target="LdjF6QLiRWB7mgE2KeXW-29" edge="1">
          <mxGeometry width="50" height="50" relative="1" as="geometry">
            <mxPoint x="-130" y="60" as="sourcePoint" />
            <mxPoint x="-80" y="10" as="targetPoint" />
          </mxGeometry>
        </mxCell>
        <mxCell id="LdjF6QLiRWB7mgE2KeXW-31" value="&lt;b&gt;&lt;u&gt;NOTE&lt;/u&gt;&lt;/b&gt;" style="text;html=1;align=center;verticalAlign=middle;resizable=0;points=[];autosize=1;" parent="LdjF6QLiRWB7mgE2KeXW-35" vertex="1">
          <mxGeometry x="65" y="12" width="50" height="20" as="geometry" />
        </mxCell>
        <mxCell id="LdjF6QLiRWB7mgE2KeXW-32" value="&lt;u&gt;For Login:&lt;br&gt;&lt;/u&gt;&lt;br&gt;Registered Email/Phone&lt;br&gt;&amp;amp; Password" style="text;html=1;align=left;verticalAlign=middle;resizable=0;points=[];autosize=1;" parent="LdjF6QLiRWB7mgE2KeXW-35" vertex="1">
          <mxGeometry x="10" y="50" width="140" height="60" as="geometry" />
        </mxCell>
        <mxCell id="LdjF6QLiRWB7mgE2KeXW-33" value="&lt;u&gt;For Register:&lt;br&gt;&lt;/u&gt;&lt;br&gt;Email, Phone, Name, Gender,&lt;br&gt;Age, Create Password" style="text;html=1;align=left;verticalAlign=middle;resizable=0;points=[];autosize=1;" parent="LdjF6QLiRWB7mgE2KeXW-35" vertex="1">
          <mxGeometry x="10" y="120" width="170" height="60" as="geometry" />
        </mxCell>
        <mxCell id="LdjF6QLiRWB7mgE2KeXW-41" value="Authentication" style="shape=rhombus;perimeter=rhombusPerimeter;whiteSpace=wrap;html=1;align=center;fillColor=#FFFFC0;strokeColor=#FF0000;gradientColor=none;" parent="1" vertex="1">
          <mxGeometry x="1094" y="452" width="120" height="60" as="geometry" />
        </mxCell>
        <mxCell id="LdjF6QLiRWB7mgE2KeXW-42" value="" style="edgeStyle=orthogonalEdgeStyle;html=1;verticalAlign=bottom;endArrow=classic;endSize=8;strokeColor=#ff0000;rounded=0;exitX=0.5;exitY=1;exitDx=0;exitDy=0;entryX=0.5;entryY=0;entryDx=0;entryDy=0;" parent="1" source="LdjF6QLiRWB7mgE2KeXW-41" edge="1">
          <mxGeometry relative="1" as="geometry">
            <mxPoint x="1154" y="587" as="targetPoint" />
            <mxPoint x="1164" y="637" as="sourcePoint" />
            <Array as="points" />
          </mxGeometry>
        </mxCell>
        <mxCell id="LdjF6QLiRWB7mgE2KeXW-43" value="Yes" style="text;html=1;align=center;verticalAlign=middle;resizable=0;points=[];autosize=1;strokeColor=none;fillColor=none;rotation=-90;" parent="1" vertex="1">
          <mxGeometry x="1124" y="541" width="30" height="20" as="geometry" />
        </mxCell>
        <mxCell id="LdjF6QLiRWB7mgE2KeXW-44" value="No" style="text;html=1;align=center;verticalAlign=middle;resizable=0;points=[];autosize=1;strokeColor=none;fillColor=none;" parent="1" vertex="1">
          <mxGeometry x="1259" y="457" width="30" height="20" as="geometry" />
        </mxCell>
        <mxCell id="LdjF6QLiRWB7mgE2KeXW-45" value="" style="edgeStyle=orthogonalEdgeStyle;html=1;verticalAlign=bottom;endArrow=classic;endSize=8;strokeColor=#ff0000;rounded=0;exitX=1;exitY=0.5;exitDx=0;exitDy=0;entryX=0;entryY=0.5;entryDx=0;entryDy=0;" parent="1" target="LdjF6QLiRWB7mgE2KeXW-46" edge="1">
          <mxGeometry relative="1" as="geometry">
            <mxPoint x="1354" y="522" as="targetPoint" />
            <mxPoint x="1214" y="482" as="sourcePoint" />
            <Array as="points" />
          </mxGeometry>
        </mxCell>
        <mxCell id="LdjF6QLiRWB7mgE2KeXW-46" value="Error" style="rounded=1;whiteSpace=wrap;html=1;arcSize=40;" parent="1" vertex="1">
          <mxGeometry x="1374" y="462" width="120" height="40" as="geometry" />
        </mxCell>
        <mxCell id="LdjF6QLiRWB7mgE2KeXW-47" value="" style="edgeStyle=orthogonalEdgeStyle;html=1;verticalAlign=bottom;endArrow=classic;endSize=8;strokeColor=#ff0000;rounded=0;exitX=0.5;exitY=1;exitDx=0;exitDy=0;entryX=0;entryY=0.5;entryDx=0;entryDy=0;" parent="1" source="LdjF6QLiRWB7mgE2KeXW-46" target="LdjF6QLiRWB7mgE2KeXW-1" edge="1">
          <mxGeometry relative="1" as="geometry">
            <mxPoint x="1434" y="672" as="targetPoint" />
            <mxPoint x="1444" y="722" as="sourcePoint" />
            <Array as="points">
              <mxPoint x="1434" y="1100" />
              <mxPoint x="200" y="1100" />
              <mxPoint x="200" y="380" />
            </Array>
          </mxGeometry>
        </mxCell>
        <mxCell id="LdjF6QLiRWB7mgE2KeXW-49" value="" style="endArrow=none;html=1;exitX=0.001;exitY=0.102;exitDx=0;exitDy=0;exitPerimeter=0;entryX=1.002;entryY=0.104;entryDx=0;entryDy=0;entryPerimeter=0;" parent="1" source="LdjF6QLiRWB7mgE2KeXW-48" target="LdjF6QLiRWB7mgE2KeXW-48" edge="1">
          <mxGeometry width="50" height="50" relative="1" as="geometry">
            <mxPoint x="710" y="420" as="sourcePoint" />
            <mxPoint x="1450" y="60" as="targetPoint" />
          </mxGeometry>
        </mxCell>
        <mxCell id="_GsAvYN7NbOw1a1kJXOR-2" value="" style="edgeStyle=orthogonalEdgeStyle;html=1;verticalAlign=bottom;endArrow=classic;endSize=8;strokeColor=#ff0000;rounded=0;exitX=0.5;exitY=1;exitDx=0;exitDy=0;" parent="1" source="LdjF6QLiRWB7mgE2KeXW-1" edge="1">
          <mxGeometry relative="1" as="geometry">
            <mxPoint x="445" y="545" as="targetPoint" />
            <mxPoint x="-50" y="410" as="sourcePoint" />
          </mxGeometry>
        </mxCell>
        <mxCell id="_GsAvYN7NbOw1a1kJXOR-8" value="Gmail&amp;nbsp;" style="rounded=1;whiteSpace=wrap;html=1;arcSize=50;" parent="1" vertex="1">
          <mxGeometry x="280" y="615" width="70" height="40" as="geometry" />
        </mxCell>
        <mxCell id="_GsAvYN7NbOw1a1kJXOR-9" value="Email" style="rounded=1;whiteSpace=wrap;html=1;arcSize=40;" parent="1" vertex="1">
          <mxGeometry x="460" y="615" width="75" height="40" as="geometry" />
        </mxCell>
        <mxCell id="_GsAvYN7NbOw1a1kJXOR-10" value="Phone" style="rounded=1;whiteSpace=wrap;html=1;arcSize=40;" parent="1" vertex="1">
          <mxGeometry x="560" y="615" width="75" height="40" as="geometry" />
        </mxCell>
        <mxCell id="_GsAvYN7NbOw1a1kJXOR-11" value="Apple ID" style="rounded=1;whiteSpace=wrap;html=1;arcSize=40;" parent="1" vertex="1">
          <mxGeometry x="370" y="615" width="70" height="40" as="geometry" />
        </mxCell>
        <mxCell id="_GsAvYN7NbOw1a1kJXOR-3" value="" style="edgeStyle=orthogonalEdgeStyle;html=1;verticalAlign=bottom;endArrow=classic;endSize=8;strokeColor=#ff0000;rounded=0;entryX=0.5;entryY=0;entryDx=0;entryDy=0;exitX=0.5;exitY=1;exitDx=0;exitDy=0;" parent="1" target="_GsAvYN7NbOw1a1kJXOR-8" edge="1">
          <mxGeometry x="300" y="545" as="geometry">
            <mxPoint x="320" y="610" as="targetPoint" />
            <mxPoint x="320" y="550" as="sourcePoint" />
            <Array as="points">
              <mxPoint x="315" y="550" />
            </Array>
          </mxGeometry>
        </mxCell>
        <mxCell id="_GsAvYN7NbOw1a1kJXOR-4" value="" style="edgeStyle=orthogonalEdgeStyle;html=1;verticalAlign=bottom;endArrow=classic;endSize=8;strokeColor=#ff0000;rounded=0;entryX=0;entryY=0.5;entryDx=0;entryDy=0;exitX=0.338;exitY=0.485;exitDx=0;exitDy=0;exitPerimeter=0;" parent="1" source="_GsAvYN7NbOw1a1kJXOR-13" edge="1">
          <mxGeometry x="304.93" y="550" as="geometry">
            <mxPoint x="404.93" y="615" as="targetPoint" />
            <mxPoint x="404.93" y="555" as="sourcePoint" />
            <Array as="points">
              <mxPoint x="405" y="555" />
            </Array>
          </mxGeometry>
        </mxCell>
        <mxCell id="_GsAvYN7NbOw1a1kJXOR-5" value="" style="edgeStyle=orthogonalEdgeStyle;html=1;verticalAlign=bottom;endArrow=classic;endSize=8;strokeColor=#ff0000;rounded=0;entryX=0;entryY=0.5;entryDx=0;entryDy=0;exitX=0.635;exitY=0.584;exitDx=0;exitDy=0;exitPerimeter=0;" parent="1" source="_GsAvYN7NbOw1a1kJXOR-13" edge="1">
          <mxGeometry x="307.33" y="550" as="geometry">
            <mxPoint x="497.33" y="615" as="targetPoint" />
            <mxPoint x="497.33" y="555" as="sourcePoint" />
          </mxGeometry>
        </mxCell>
        <mxCell id="_GsAvYN7NbOw1a1kJXOR-6" value="" style="edgeStyle=orthogonalEdgeStyle;html=1;verticalAlign=bottom;endArrow=classic;endSize=8;strokeColor=#ff0000;rounded=0;entryX=0;entryY=0.5;entryDx=0;entryDy=0;exitX=0.961;exitY=0.496;exitDx=0;exitDy=0;exitPerimeter=0;" parent="1" source="_GsAvYN7NbOw1a1kJXOR-13" edge="1">
          <mxGeometry x="327.33" y="550" as="geometry">
            <mxPoint x="597.33" y="615" as="targetPoint" />
            <mxPoint x="597.33" y="555" as="sourcePoint" />
            <Array as="points">
              <mxPoint x="598" y="590" />
              <mxPoint x="597" y="590" />
            </Array>
          </mxGeometry>
        </mxCell>
        <mxCell id="_GsAvYN7NbOw1a1kJXOR-13" value="" style="shape=line;html=1;strokeWidth=6;strokeColor=#0f0f0f;" parent="1" vertex="1">
          <mxGeometry x="300" y="546" width="310" height="10" as="geometry" />
        </mxCell>
        <mxCell id="_GsAvYN7NbOw1a1kJXOR-14" value="" style="edgeStyle=orthogonalEdgeStyle;html=1;verticalAlign=bottom;endArrow=classic;endSize=8;strokeColor=#ff0000;rounded=0;entryX=0;entryY=0.5;entryDx=0;entryDy=0;exitX=0.5;exitY=1;exitDx=0;exitDy=0;" parent="1" source="_GsAvYN7NbOw1a1kJXOR-8" edge="1">
          <mxGeometry x="215.01" y="654.15" as="geometry">
            <mxPoint x="315.01000000000005" y="719.15" as="targetPoint" />
            <mxPoint x="314.85999999999996" y="655" as="sourcePoint" />
            <Array as="points" />
          </mxGeometry>
        </mxCell>
        <mxCell id="_GsAvYN7NbOw1a1kJXOR-15" value="" style="edgeStyle=orthogonalEdgeStyle;html=1;verticalAlign=bottom;endArrow=classic;endSize=8;strokeColor=#ff0000;rounded=0;entryX=0;entryY=0.5;entryDx=0;entryDy=0;exitX=0.338;exitY=0.485;exitDx=0;exitDy=0;exitPerimeter=0;" parent="1" edge="1">
          <mxGeometry x="305.01" y="654.15" as="geometry">
            <mxPoint x="405.01000000000005" y="719.15" as="targetPoint" />
            <mxPoint x="404.85999999999996" y="655" as="sourcePoint" />
            <Array as="points">
              <mxPoint x="405.08" y="687.15" />
            </Array>
          </mxGeometry>
        </mxCell>
        <mxCell id="_GsAvYN7NbOw1a1kJXOR-16" value="" style="edgeStyle=orthogonalEdgeStyle;html=1;verticalAlign=bottom;endArrow=classic;endSize=8;strokeColor=#ff0000;rounded=0;entryX=0;entryY=0.5;entryDx=0;entryDy=0;exitX=0.338;exitY=0.485;exitDx=0;exitDy=0;exitPerimeter=0;" parent="1" edge="1">
          <mxGeometry x="397.51" y="654.15" as="geometry">
            <mxPoint x="497.51000000000005" y="719.15" as="targetPoint" />
            <mxPoint x="497.35999999999996" y="655" as="sourcePoint" />
            <Array as="points">
              <mxPoint x="497.58" y="659.15" />
            </Array>
          </mxGeometry>
        </mxCell>
        <mxCell id="_GsAvYN7NbOw1a1kJXOR-17" value="" style="edgeStyle=orthogonalEdgeStyle;html=1;verticalAlign=bottom;endArrow=classic;endSize=8;strokeColor=#ff0000;rounded=0;entryX=0;entryY=0.5;entryDx=0;entryDy=0;exitX=0.338;exitY=0.485;exitDx=0;exitDy=0;exitPerimeter=0;" parent="1" edge="1">
          <mxGeometry x="500.15" y="654.15" as="geometry">
            <mxPoint x="600.1500000000001" y="719.15" as="targetPoint" />
            <mxPoint x="600" y="655" as="sourcePoint" />
            <Array as="points">
              <mxPoint x="600.22" y="659.15" />
            </Array>
          </mxGeometry>
        </mxCell>
        <mxCell id="_GsAvYN7NbOw1a1kJXOR-18" value="" style="shape=line;html=1;strokeWidth=6;strokeColor=#0f0f0f;" parent="1" vertex="1">
          <mxGeometry x="301" y="717" width="119" height="10" as="geometry" />
        </mxCell>
        <mxCell id="_GsAvYN7NbOw1a1kJXOR-19" value="" style="shape=line;html=1;strokeWidth=6;strokeColor=#0f0f0f;" parent="1" vertex="1">
          <mxGeometry x="491" y="717" width="119" height="10" as="geometry" />
        </mxCell>
        <mxCell id="_GsAvYN7NbOw1a1kJXOR-20" value="" style="endArrow=none;dashed=1;html=1;exitX=0.5;exitY=1;exitDx=0;exitDy=0;entryX=0;entryY=0.5;entryDx=0;entryDy=0;rounded=0;" parent="1" source="Y1P2OGkWo0qMnBjNgQvx-16" target="LdjF6QLiRWB7mgE2KeXW-29" edge="1">
          <mxGeometry width="50" height="50" relative="1" as="geometry">
            <mxPoint x="800" y="720" as="sourcePoint" />
            <mxPoint x="850" y="670" as="targetPoint" />
            <Array as="points">
              <mxPoint x="550" y="970" />
            </Array>
          </mxGeometry>
        </mxCell>
        <mxCell id="_GsAvYN7NbOw1a1kJXOR-21" value="" style="edgeStyle=orthogonalEdgeStyle;html=1;verticalAlign=bottom;endArrow=classic;endSize=8;strokeColor=#ff0000;rounded=0;entryX=0;entryY=0.5;entryDx=0;entryDy=0;exitX=1;exitY=0.5;exitDx=0;exitDy=0;" parent="1" source="Y1P2OGkWo0qMnBjNgQvx-16" target="LdjF6QLiRWB7mgE2KeXW-41" edge="1">
          <mxGeometry relative="1" as="geometry">
            <mxPoint x="660" y="855" as="targetPoint" />
            <mxPoint x="660" y="795" as="sourcePoint" />
            <Array as="points">
              <mxPoint x="670" y="815" />
              <mxPoint x="670" y="482" />
            </Array>
          </mxGeometry>
        </mxCell>
        <mxCell id="TMxtDJOLsaNCBTGR0uNm-2" value="" style="ellipse;html=1;shape=endState;fillColor=#000000;strokeColor=#ff0000;" parent="1" vertex="1">
          <mxGeometry x="831" y="830" width="30" height="30" as="geometry" />
        </mxCell>
        <mxCell id="TMxtDJOLsaNCBTGR0uNm-3" value="Home Page" style="rounded=1;whiteSpace=wrap;html=1;arcSize=40;" parent="1" vertex="1">
          <mxGeometry x="786" y="750" width="120" height="40" as="geometry" />
        </mxCell>
        <mxCell id="TMxtDJOLsaNCBTGR0uNm-8" value="" style="endArrow=classic;html=1;strokeColor=#FF0000;rounded=0;entryX=0.5;entryY=0;entryDx=0;entryDy=0;exitX=0.5;exitY=1;exitDx=0;exitDy=0;" parent="1" source="TMxtDJOLsaNCBTGR0uNm-3" target="TMxtDJOLsaNCBTGR0uNm-2" edge="1">
          <mxGeometry width="50" height="50" relative="1" as="geometry">
            <mxPoint x="1144" y="907" as="sourcePoint" />
            <mxPoint x="965" y="907" as="targetPoint" />
          </mxGeometry>
        </mxCell>
        <mxCell id="FlQZiOXVQ-BK9udVIOir-9" value="Login" style="rounded=1;whiteSpace=wrap;html=1;arcSize=40;" parent="1" vertex="1">
          <mxGeometry x="1074" y="659" width="70" height="40" as="geometry" />
        </mxCell>
        <mxCell id="FlQZiOXVQ-BK9udVIOir-10" value="Register" style="rounded=1;whiteSpace=wrap;html=1;arcSize=40;" parent="1" vertex="1">
          <mxGeometry x="1164" y="659" width="70" height="40" as="geometry" />
        </mxCell>
        <mxCell id="FlQZiOXVQ-BK9udVIOir-11" value="" style="edgeStyle=orthogonalEdgeStyle;html=1;verticalAlign=bottom;endArrow=classic;endSize=8;strokeColor=#ff0000;rounded=0;entryX=0.5;entryY=0;entryDx=0;entryDy=0;exitX=0.5;exitY=1;exitDx=0;exitDy=0;" parent="1" edge="1">
          <mxGeometry x="1094" y="588" as="geometry">
            <mxPoint x="1109" y="658" as="targetPoint" />
            <mxPoint x="1114" y="593" as="sourcePoint" />
            <Array as="points">
              <mxPoint x="1109" y="593" />
            </Array>
          </mxGeometry>
        </mxCell>
        <mxCell id="FlQZiOXVQ-BK9udVIOir-12" value="" style="edgeStyle=orthogonalEdgeStyle;html=1;verticalAlign=bottom;endArrow=classic;endSize=8;strokeColor=#ff0000;rounded=0;entryX=0;entryY=0.5;entryDx=0;entryDy=0;exitX=0.338;exitY=0.485;exitDx=0;exitDy=0;exitPerimeter=0;" parent="1" edge="1">
          <mxGeometry x="1098.93" y="593" as="geometry">
            <mxPoint x="1198.9299999999998" y="658" as="targetPoint" />
            <mxPoint x="1198.7799999999997" y="593.8500000000001" as="sourcePoint" />
            <Array as="points">
              <mxPoint x="1199" y="598" />
            </Array>
          </mxGeometry>
        </mxCell>
        <mxCell id="FlQZiOXVQ-BK9udVIOir-13" value="" style="edgeStyle=orthogonalEdgeStyle;html=1;verticalAlign=bottom;endArrow=classic;endSize=8;strokeColor=#ff0000;rounded=0;entryX=0.5;entryY=0;entryDx=0;entryDy=0;exitX=0.5;exitY=1;exitDx=0;exitDy=0;" parent="1" source="FlQZiOXVQ-BK9udVIOir-9" target="TMxtDJOLsaNCBTGR0uNm-3" edge="1">
          <mxGeometry x="1009.01" y="698.15" as="geometry">
            <mxPoint x="1109.0100000000002" y="763.1500000000001" as="targetPoint" />
            <mxPoint x="1108.86" y="699" as="sourcePoint" />
            <Array as="points">
              <mxPoint x="1109" y="720" />
              <mxPoint x="846" y="720" />
            </Array>
          </mxGeometry>
        </mxCell>
        <mxCell id="FlQZiOXVQ-BK9udVIOir-14" value="" style="edgeStyle=orthogonalEdgeStyle;html=1;verticalAlign=bottom;endArrow=classic;endSize=8;strokeColor=#ff0000;rounded=0;entryX=0.5;entryY=0;entryDx=0;entryDy=0;exitX=0.338;exitY=0.485;exitDx=0;exitDy=0;exitPerimeter=0;" parent="1" target="Y1P2OGkWo0qMnBjNgQvx-25" edge="1">
          <mxGeometry x="1099.01" y="698.15" as="geometry">
            <mxPoint x="1199.0100000000002" y="763.1500000000001" as="targetPoint" />
            <mxPoint x="1198.8600000000001" y="699" as="sourcePoint" />
            <Array as="points">
              <mxPoint x="1199" y="910" />
            </Array>
          </mxGeometry>
        </mxCell>
        <mxCell id="FlQZiOXVQ-BK9udVIOir-15" value="" style="shape=line;html=1;strokeWidth=6;strokeColor=#0f0f0f;" parent="1" vertex="1">
          <mxGeometry x="1095" y="586" width="119" height="10" as="geometry" />
        </mxCell>
        <mxCell id="FlQZiOXVQ-BK9udVIOir-16" value="" style="edgeStyle=orthogonalEdgeStyle;html=1;verticalAlign=bottom;endArrow=classic;endSize=8;strokeColor=#ff0000;rounded=0;entryX=1;entryY=0.5;entryDx=0;entryDy=0;exitX=0;exitY=0.5;exitDx=0;exitDy=0;" parent="1" source="Y1P2OGkWo0qMnBjNgQvx-25" target="TMxtDJOLsaNCBTGR0uNm-3" edge="1">
          <mxGeometry x="1108.93" y="901" as="geometry">
            <mxPoint x="1208.9299999999998" y="966" as="targetPoint" />
            <mxPoint x="1208.7799999999997" y="901.8500000000001" as="sourcePoint" />
            <Array as="points">
              <mxPoint x="1010" y="930" />
              <mxPoint x="1010" y="770" />
            </Array>
          </mxGeometry>
        </mxCell>
        <mxCell id="NxZndG77QdEew6xyaiXL-1" value="&lt;font size=&quot;1&quot; face=&quot;Comic Sans MS&quot;&gt;&lt;b style=&quot;font-size: 38px;&quot;&gt;Login Activity Diagram&lt;/b&gt;&lt;/font&gt;" style="rounded=0;whiteSpace=wrap;html=1;" vertex="1" parent="1">
          <mxGeometry x="720" y="-17" width="460" height="60" as="geometry" />
        </mxCell>
      </root>
    </mxGraphModel>
  </diagram>
</mxfile>
